mtllib OBJ_PCB_steph_hacking_grad_pcb.mtl
usemtl mtl1
v 4227.3501 -3591.6792795385945 0
v 4031.1 -3493.5541796909947 0
v 4031.1 -3493.5541796909947 10
vn 981.2509984759981 1962.5009999999975 0
f 1//1 2//1 3//1
v 4227.3501 -3591.6792795385945 10
f 3//1 4//1 1//1
v 4031.1 -3297.4458203090053 0
v 4031.1 -3297.4458203090053 10
vn 1961.0835938198943 0 0
f 2//2 5//2 6//2
f 6//2 3//2 2//2
v 4227.3501 -3199.3207204614055 0
v 4227.3501 -3199.3207204614055 10
vn 981.2509984759981 -1962.5009999999975 0
f 5//3 7//3 8//3
f 8//3 6//3 5//3
v 4423.6002 -3297.4458203090053 0
v 4423.6002 -3297.4458203090053 10
vn -981.2509984759981 -1962.501000000002 0
f 7//4 9//4 10//4
f 10//4 8//4 7//4
v 4423.6002 -3493.554179690995 0
v 4423.6002 -3493.554179690995 10
vn -1961.0835938198989 0 0
f 9//5 11//5 12//5
f 12//5 10//5 9//5
vn -981.2509984759936 1962.501000000002 0
f 11//6 1//6 4//6
f 4//6 12//6 11//6
v 4224.703947417207 -3233.7742031259545 0
v 4227.328324046458 -3234.3195548607578 0
v 4227.328324046458 -3234.3195548607578 10
vn -5.453517348032619 -26.243766292509463 0
f 13//7 14//7 15//7
v 4224.703947417207 -3233.7742031259545 10
f 15//7 16//7 13//7
v 4230.002515808471 -3234.1366351330134 0
v 4230.002515808471 -3234.1366351330134 10
vn 1.8291972774431997 -26.741917620129243 0
f 14//8 17//8 18//8
f 18//8 15//8 14//8
v 4232.5281901338685 -3233.2390102621252 0
v 4232.5281901338685 -3233.2390102621252 10
vn 8.97624870888194 -25.25674325397631 0
f 17//9 19//9 20//9
f 20//9 18//9 17//9
v 4234.718029312129 -3231.6932529784076 0
v 4234.718029312129 -3231.6932529784076 10
vn 15.457572837176485 -21.898391782606268 0
f 19//10 21//10 22//10
f 22//10 20//10 19//10
v 4236.409622989248 -3229.614005028224 0
v 4236.409622989248 -3229.614005028224 10
vn 20.792479501837988 -16.91593677119272 0
f 21//11 23//11 24//11
f 24//11 22//11 21//11
v 4237.47751340072 -3227.155474720113 0
v 4237.47751340072 -3227.155474720113 10
vn 24.585303081107668 -10.678904114720353 0
f 23//12 25//12 26//12
f 26//12 24//12 23//12
v 4237.8425 -3224.5 0
v 4237.8425 -3224.5 10
vn 26.55474720113034 -3.649865992792911 0
f 25//13 27//13 28//13
f 28//13 26//13 25//13
v 4237.47751340072 -3221.844525279887 0
v 4237.47751340072 -3221.844525279887 10
vn 26.55474720113034 3.649865992792911 0
f 27//14 29//14 30//14
f 30//14 28//14 27//14
v 4236.409622989248 -3219.385994971776 0
v 4236.409622989248 -3219.385994971776 10
vn 24.585303081107668 10.678904114720353 0
f 29//15 31//15 32//15
f 32//15 30//15 29//15
v 4234.71802931213 -3217.3067470215924 0
v 4234.71802931213 -3217.3067470215924 10
vn 20.792479501837988 16.915936771183624 0
f 31//16 33//16 34//16
f 34//16 32//16 31//16
v 4232.5281901338685 -3215.7609897378748 0
v 4232.5281901338685 -3215.7609897378748 10
vn 15.457572837176485 21.898391782615363 0
f 33//17 35//17 36//17
f 36//17 34//17 33//17
v 4230.002515808471 -3214.8633648669866 0
v 4230.002515808471 -3214.8633648669866 10
vn 8.97624870888194 25.25674325397631 0
f 35//18 37//18 38//18
f 38//18 36//18 35//18
v 4227.328324046458 -3214.6804451392422 0
v 4227.328324046458 -3214.6804451392422 10
vn 1.8291972774431997 26.741917620129243 0
f 37//19 39//19 40//19
f 40//19 38//19 37//19
v 4224.703947417207 -3215.2257968740455 0
v 4224.703947417207 -3215.2257968740455 10
vn -5.453517348032619 26.243766292509463 0
f 39//20 41//20 42//20
f 42//20 40//20 39//20
v 4222.324023929585 -3216.4589738280447 0
v 4222.324023929585 -3216.4589738280447 10
vn -12.33176953999191 23.799234876223636 0
f 41//21 43//21 44//21
f 44//21 42//21 41//21
v 4220.365061621242 -3218.288516907971 0
v 4220.365061621242 -3218.288516907971 10
vn -18.29543079926225 19.589623083429615 0
f 43//22 45//22 46//22
f 46//22 44//22 43//22
v 4218.972347764932 -3220.5787372731884 0
v 4218.972347764932 -3220.5787372731884 10
vn -22.90220365217465 13.927138563094559 0
f 45//23 47//23 48//23
f 48//23 46//23 45//23
v 4218.249173576138 -3223.1597797562704 0
v 4218.249173576138 -3223.1597797562704 10
vn -25.81042483082001 7.231741887944736 0
f 47//24 49//24 50//24
f 50//24 48//24 47//24
v 4218.249173576138 -3225.8402202437296 0
v 4218.249173576138 -3225.8402202437296 10
vn -26.804404874592365 0 0
f 49//25 51//25 52//25
f 52//25 50//25 49//25
v 4218.972347764932 -3228.4212627268116 0
v 4218.972347764932 -3228.4212627268116 10
vn -25.81042483082001 -7.231741887944736 0
f 51//26 53//26 54//26
f 54//26 52//26 51//26
v 4220.365061621242 -3230.711483092029 0
v 4220.365061621242 -3230.711483092029 10
vn -22.90220365217465 -13.927138563094559 0
f 53//27 55//27 56//27
f 56//27 54//27 53//27
v 4222.324023929585 -3232.5410261719553 0
v 4222.324023929585 -3232.5410261719553 10
vn -18.29543079926225 -19.589623083429615 0
f 55//28 57//28 58//28
f 58//28 56//28 55//28
vn -12.33176953999191 -23.799234876223636 0
f 57//29 13//29 16//29
f 16//29 58//29 57//29
v 4031.1 -3493.554179690995 0
vn 0 0 -38514.12131520271
f 59//30 11//30 1//30
v 4031.1 -3493.554179690995 10
f 60//30 12//30 4//30
v 4423.6002 -3493.5541796909947 0
vn 0 0 -1.7848842617240732e-10
f 2//31 61//31 11//31
v 4423.6002 -3493.5541796909947 10
f 3//31 62//31 12//31
f 11//31 59//31 2//31
f 12//31 60//31 3//31
vn 0 0 -76972.57027910271
f 5//32 9//32 61//32
f 6//32 10//32 62//32
f 61//32 2//32 5//32
f 62//32 3//32 6//32
v 4157.352466760146 -3234.3195548607578 0
v 4297.347733239853 -3234.3195548607578 0
vn 0 0 -8837.378353296159
f 63//33 64//33 9//33
v 4157.352466760146 -3234.3195548607578 10
v 4297.347733239853 -3234.3195548607578 10
f 65//33 66//33 10//33
vn 0 0 -24777.07181369024
f 9//34 5//34 63//34
f 10//34 6//34 65//34
v 4157.7183060297875 -3234.1366351330134 0
v 4226.448065989345 -3234.1366351330134 0
vn 0 0 -12.572028979734753
f 67//35 68//35 14//35
v 4157.7183060297875 -3234.1366351330134 10
v 4226.448065989345 -3234.1366351330134 10
f 69//35 70//35 15//35
vn 0 0 -12.799964763487583
f 14//36 63//36 67//36
f 15//36 65//36 69//36
v 4296.981893970212 -3234.1366351330134 0
vn 0 0 -12.251849617829496
f 17//37 71//37 64//37
v 4296.981893970212 -3234.1366351330134 10
f 18//37 72//37 66//37
vn 0 0 -12.807931266474021
f 64//38 14//38 17//38
f 66//38 15//38 18//38
v 4158.443169675675 -3233.7742031259545 0
vn 0 0 -24.015026666150042
f 73//39 13//39 68//39
v 4158.443169675675 -3233.7742031259545 10
f 74//39 16//39 70//39
vn 0 0 -24.90986484682179
f 68//40 67//40 73//40
f 70//40 69//40 74//40
v 4231.022301739787 -3233.7742031259545 0
v 4296.257030324325 -3233.7742031259545 0
vn 0 0 -23.643153610839462
f 75//41 76//41 71//41
v 4231.022301739787 -3233.7742031259545 10
v 4296.257030324325 -3233.7742031259545 10
f 77//41 78//41 72//41
vn 0 0 -24.27547045871962
f 71//42 17//42 75//42
f 72//42 18//42 77//42
v 4159.513554859576 -3233.2390102621252 0
v 4223.6710720760775 -3233.2390102621252 0
vn 0 0 -34.33664537527383
f 79//43 80//43 13//43
v 4159.513554859576 -3233.2390102621252 10
v 4223.6710720760775 -3233.2390102621252 10
f 81//43 82//43 16//43
vn 0 0 -35.462295399044265
f 13//44 73//44 79//44
f 16//44 74//44 81//44
v 4295.186645140423 -3233.2390102621252 0
vn 0 0 -33.53435797807424
f 19//45 83//45 76//45
v 4295.186645140423 -3233.2390102621252 10
f 20//45 84//45 78//45
vn 0 0 -34.913161212282894
f 76//46 75//46 19//46
f 78//46 77//46 20//46
v 4160.909522330764 -3232.5410261719553 0
vn 0 0 -42.866345021693064
f 85//47 57//47 80//47
v 4160.909522330764 -3232.5410261719553 10
f 86//47 58//47 82//47
vn 0 0 -44.7809262819218
f 80//48 79//48 85//48
f 82//48 81//48 86//48
v 4233.5170083154535 -3232.5410261719553 0
v 4293.790677669235 -3232.5410261719553 0
vn 0 0 -42.070062265103104
f 87//49 88//49 83//49
v 4233.5170083154535 -3232.5410261719553 10
v 4293.790677669235 -3232.5410261719553 10
f 89//49 90//49 84//49
vn 0 0 -43.73460470920401
f 83//50 19//50 87//50
f 84//50 20//50 89//50
v 4162.605067856521 -3231.6932529784076 0
v 4221.416280487845 -3231.6932529784076 0
vn 0 0 -49.85856954887132
f 91//51 92//51 57//51
v 4162.605067856521 -3231.6932529784076 10
v 4221.416280487845 -3231.6932529784076 10
f 93//51 94//51 58//51
vn 0 0 -52.06556815057306
f 57//52 85//52 91//52
f 58//52 86//52 93//52
v 4292.095132143479 -3231.6932529784076 0
vn 0 0 -48.64276970384847
f 21//53 95//53 88//53
v 4292.095132143479 -3231.6932529784076 10
f 22//53 96//53 90//53
vn 0 0 -51.09840115489428
f 88//54 87//54 21//54
f 90//54 89//54 22//54
v 4164.5686066317985 -3230.711483092029 0
vn 0 0 -54.77927927530959
f 97//55 55//55 92//55
v 4164.5686066317985 -3230.711483092029 10
f 98//55 56//55 94//55
vn 0 0 -57.73907754283812
f 92//56 91//56 97//56
f 94//56 93//56 98//56
v 4235.516758358387 -3230.711483092029 0
v 4290.131593368201 -3230.711483092029 0
vn 0 0 -53.61920036216622
f 99//57 100//57 95//57
v 4235.516758358387 -3230.711483092029 10
v 4290.131593368201 -3230.711483092029 10
f 101//57 102//57 96//57
vn 0 0 -56.331111727462364
f 95//58 21//58 99//58
f 96//58 22//58 101//58
v 4166.76356164437 -3229.614005028224 0
v 4219.697670426197 -3229.614005028224 0
vn 0 0 -58.094023215137284
f 103//59 104//59 55//59
v 4166.76356164437 -3229.614005028224 10
v 4219.697670426197 -3229.614005028224 10
f 105//59 106//59 56//59
vn 0 0 -61.23538538901276
f 55//60 97//60 103//60
f 56//60 98//60 105//60
v 4287.936638355629 -3229.614005028224 0
vn 0 0 -56.54976905796037
f 23//61 107//61 100//61
v 4287.936638355629 -3229.614005028224 10
f 24//61 108//61 102//61
vn 0 0 -59.938583381615416
f 100//62 99//62 23//62
f 102//62 101//62 24//62
v 4169.149045035368 -3228.4212627268116 0
vn 0 0 -59.426360761616706
f 109//63 53//63 104//63
v 4169.149045035368 -3228.4212627268116 10
f 110//63 54//63 106//63
vn 0 0 -63.1367507316386
f 104//64 103//64 109//64
f 106//64 105//64 110//64
v 4236.927704081368 -3228.4212627268116 0
v 4285.551154964632 -3228.4212627268116 0
vn 0 0 -57.99524670910648
f 111//65 112//65 107//65
v 4236.927704081368 -3228.4212627268116 10
v 4285.551154964632 -3228.4212627268116 10
f 113//65 114//65 108//65
vn 0 0 -61.458450892997526
f 107//66 23//66 111//66
f 108//66 24//66 113//66
v 4171.680619762723 -3227.155474720113 0
v 4218.617690597943 -3227.155474720113 0
vn 0 0 -59.41238133278325
f 115//67 116//67 53//67
v 4171.680619762723 -3227.155474720113 10
v 4218.617690597943 -3227.155474720113 10
f 117//67 118//67 54//67
vn 0 0 -63.06573904919576
f 53//68 109//68 115//68
f 54//68 110//68 117//68
v 4283.019580237276 -3227.155474720113 0
vn 0 0 -57.64660200197788
f 25//69 119//69 112//69
v 4283.019580237276 -3227.155474720113 10
f 26//69 120//69 114//69
vn 0 0 -61.54698097233332
f 112//70 111//70 25//70
f 114//70 113//70 26//70
v 4174.31112737919 -3225.8402202437296 0
vn 0 0 -57.789711944076714
f 121//71 51//71 116//71
v 4174.31112737919 -3225.8402202437296 10
f 122//71 52//71 118//71
vn 0 0 -61.73419252434839
f 116//72 115//72 121//72
f 118//72 117//72 122//72
v 4237.658290967491 -3225.8402202437296 0
v 4280.38907262081 -3225.8402202437296 0
vn 0 0 -56.20185184889061
f 123//73 124//73 119//73
v 4237.658290967491 -3225.8402202437296 10
v 4280.38907262081 -3225.8402202437296 10
f 125//73 126//73 120//73
vn 0 0 -59.8994072705329
f 119//74 25//74 123//74
f 120//74 26//74 125//74
v 4176.991566504984 -3224.5 0
v 4218.249173576138 -3224.5 0
vn 0 0 -55.294280204602664
f 127//75 128//75 51//75
v 4176.991566504984 -3224.5 10
v 4218.249173576138 -3224.5 10
f 129//75 130//75 52//75
vn 0 0 -58.88665898307641
f 51//76 121//76 127//76
f 52//76 122//76 129//76
v 4277.708633495015 -3224.5 0
vn 0 0 -53.4293991492474
f 27//77 131//77 124//77
v 4277.708633495015 -3224.5 10
f 28//77 132//77 126//77
vn 0 0 -57.26865860216876
f 124//78 123//78 27//78
f 126//78 125//78 28//78
v 4179.672005630778 -3223.1597797562704 0
vn 0 0 -51.70190142612891
f 133//79 49//79 128//79
v 4179.672005630778 -3223.1597797562704 10
f 134//79 50//79 130//79
f 128//75 127//75 133//75
f 130//75 129//75 134//75
v 4237.658290967491 -3223.1597797562704 0
v 4275.028194369222 -3223.1597797562704 0
vn 0 0 -50.08390104522005
f 135//80 136//80 131//80
v 4237.658290967491 -3223.1597797562704 10
v 4275.028194369222 -3223.1597797562704 10
f 137//80 138//80 132//80
f 131//77 27//77 135//77
f 132//77 28//77 137//77
v 4182.302513247245 -3221.844525279887 0
v 4218.617690597943 -3221.844525279887 0
vn 0 0 -47.76369957116307
f 139//81 140//81 49//81
v 4182.302513247245 -3221.844525279887 10
v 4218.617690597943 -3221.844525279887 10
f 141//81 142//81 50//81
vn 0 0 -50.73879282632967
f 49//82 133//82 139//82
f 50//82 134//82 141//82
v 4272.397686752754 -3221.844525279887 0
vn 0 0 -45.928914317347584
f 29//83 143//83 136//83
v 4272.397686752754 -3221.844525279887 10
f 30//83 144//83 138//83
vn 0 0 -49.150932731142376
f 136//84 135//84 29//84
f 138//84 137//84 30//84
v 4184.8340879746 -3220.5787372731884 0
vn 0 0 -43.211799812162916
f 145//85 47//85 140//85
v 4184.8340879746 -3220.5787372731884 10
f 146//85 48//85 142//85
vn 0 0 -45.96731595164554
f 140//86 139//86 145//86
f 142//86 141//86 146//86
v 4236.927704081368 -3220.5787372731884 0
v 4269.866112025399 -3220.5787372731884 0
vn 0 0 -41.693041735300476
f 147//87 148//87 143//87
v 4236.927704081368 -3220.5787372731884 10
v 4269.866112025399 -3220.5787372731884 10
f 149//87 150//87 144//87
vn 0 0 -44.20153662084017
f 143//88 29//88 147//88
f 144//88 30//88 149//88
v 4187.219571365597 -3219.385994971776 0
v 4219.697670426197 -3219.385994971776 0
vn 0 0 -38.73800261903233
f 151//89 152//89 47//89
v 4187.219571365597 -3219.385994971776 10
v 4219.697670426197 -3219.385994971776 10
f 153//89 154//89 48//89
vn 0 0 -40.71814654852763
f 47//90 145//90 151//90
f 48//90 146//90 153//90
v 4267.480628634402 -3219.385994971776 0
vn 0 0 -37.059702780391255
f 31//91 155//91 148//91
v 4267.480628634402 -3219.385994971776 10
f 32//91 156//91 150//91
vn 0 0 -39.2870324960174
f 148//92 147//92 31//92
f 150//92 149//92 32//92
v 4189.414526378169 -3218.288516907971 0
vn 0 0 -33.9675334923043
f 157//93 45//93 152//93
v 4189.414526378169 -3218.288516907971 10
f 158//93 46//93 154//93
vn 0 0 -35.644001273103
f 152//94 151//94 157//94
f 154//94 153//94 158//94
v 4235.516758358388 -3218.288516907971 0
v 4265.28567362183 -3218.288516907971 0
vn 0 0 -32.67073148490595
f 159//95 160//95 155//95
v 4235.516758358388 -3218.288516907971 10
v 4265.28567362183 -3218.288516907971 10
f 161//95 162//95 156//95
vn 0 0 -34.099747115926085
f 155//96 31//96 159//96
f 156//96 32//96 161//96
v 4191.378065153447 -3217.3067470215924 0
v 4221.416280487845 -3217.3067470215924 0
vn 0 0 -29.490615255865347
f 163//97 164//97 45//97
v 4191.378065153447 -3217.3067470215924 10
v 4221.416280487845 -3217.3067470215924 10
f 165//97 166//97 46//97
vn 0 0 -30.386303468945435
f 45//98 157//98 163//98
f 46//98 158//98 165//98
v 4263.322134846552 -3217.3067470215924 0
vn 0 0 -28.08264944048871
f 33//99 167//99 160//99
v 4263.322134846552 -3217.3067470215924 10
f 34//99 168//99 162//99
vn 0 0 -29.22622455580117
f 160//100 159//100 33//100
f 162//100 161//100 34//100
v 4193.073610679204 -3216.4589738280447 0
vn 0 0 -24.79771625386567
f 169//101 43//101 164//101
v 4193.073610679204 -3216.4589738280447 10
f 170//101 44//101 166//101
vn 0 0 -25.46559374251641
f 164//102 163//102 169//102
f 166//102 165//102 170//102
v 4233.5170083154535 -3216.4589738280447 0
v 4261.626589320796 -3216.4589738280447 0
vn 0 0 -23.83054925818689
f 171//103 172//103 167//103
v 4233.5170083154535 -3216.4589738280447 10
v 4261.626589320796 -3216.4589738280447 10
f 173//103 174//103 168//103
vn 0 0 -24.249793897492786
f 167//104 33//104 171//104
f 168//104 34//104 173//104
v 4194.4695781503915 -3215.7609897378748 0
v 4223.6710720760775 -3215.7609897378748 0
vn 0 0 -20.38217816932295
f 175//105 176//105 43//105
v 4194.4695781503915 -3215.7609897378748 10
v 4223.6710720760775 -3215.7609897378748 10
f 177//105 178//105 44//105
vn 0 0 -20.41632307966185
f 43//106 169//106 175//106
f 44//106 170//106 177//106
v 4260.230621849608 -3215.7609897378748 0
vn 0 0 -19.335856596605154
f 35//107 179//107 172//107
v 4260.230621849608 -3215.7609897378748 10
f 36//107 180//107 174//107
vn 0 0 -19.62004032307189
f 172//108 171//108 35//108
f 174//108 173//108 36//108
v 4195.539963334293 -3215.2257968740455 0
vn 0 0 -15.608356162005403
f 181//109 41//109 176//109
v 4195.539963334293 -3215.2257968740455 10
f 182//109 42//109 178//109
vn 0 0 -15.628431162180402
f 176//110 175//110 181//110
f 178//110 177//110 182//110
v 4231.022301739787 -3215.2257968740455 0
v 4259.160236665706 -3215.2257968740455 0
vn 0 0 -15.059221975244032
f 183//111 184//111 179//111
v 4231.022301739787 -3215.2257968740455 10
v 4259.160236665706 -3215.2257968740455 10
f 185//111 186//111 180//111
vn 0 0 -14.826143764980813
f 179//112 35//112 183//112
f 180//112 36//112 185//112
v 4196.264826980179 -3214.8633648669866 0
v 4226.448065989345 -3214.8633648669866 0
vn 0 0 -10.939371893631728
f 187//113 188//113 41//113
v 4196.264826980179 -3214.8633648669866 10
v 4226.448065989345 -3214.8633648669866 10
f 189//113 190//113 42//113
vn 0 0 -10.569961285005515
f 41//114 181//114 187//114
f 42//114 182//114 189//114
v 4258.43537301982 -3214.8633648669866 0
vn 0 0 -10.304977505529557
f 37//115 191//115 184//115
v 4258.43537301982 -3214.8633648669866 10
f 38//115 192//115 186//115
vn 0 0 -10.198088229694935
f 184//116 183//116 37//116
f 186//116 185//116 38//116
v 4196.630666249822 -3214.6804451392422 0
vn 0 0 -5.61520720654898
f 193//117 39//117 188//117
v 4196.630666249822 -3214.6804451392422 10
f 194//117 40//117 190//117
vn 0 0 -5.5211098619983545
f 188//118 187//118 193//118
f 190//118 189//118 194//118
v 4258.0695337501775 -3214.6804451392422 0
vn 0 0 -5.623173709535419
f 39//119 195//119 191//119
v 4258.0695337501775 -3214.6804451392422 10
f 40//119 196//119 192//119
vn 0 0 -5.200930500093097
f 191//120 37//120 39//120
f 192//120 38//120 40//120
vn 0 0 -943.6840893235556
f 195//121 193//121 7//121
f 196//121 194//121 8//121